%TF.GenerationSoftware,KiCad,Pcbnew,9.0.7*%
%TF.CreationDate,2026-03-14T13:22:58+01:00*%
%TF.ProjectId,misfits,6d697366-6974-4732-9e6b-696361645f70,2*%
%TF.SameCoordinates,Original*%
%TF.FileFunction,Copper,L3,Inr*%
%TF.FilePolarity,Positive*%
%FSLAX46Y46*%
G04 Gerber Fmt 4.6, Leading zero omitted, Abs format (unit mm)*
G04 Created by KiCad (PCBNEW 9.0.7) date 2026-03-14 13:22:58*
%MOMM*%
%LPD*%
G01*
G04 APERTURE LIST*
%TA.AperFunction,ComponentPad*%
%ADD10O,1.050000X1.850000*%
%TD*%
%TA.AperFunction,ComponentPad*%
%ADD11O,1.050000X2.250000*%
%TD*%
%TA.AperFunction,ComponentPad*%
%ADD12R,1.308000X1.308000*%
%TD*%
%TA.AperFunction,ComponentPad*%
%ADD13C,1.308000*%
%TD*%
%TA.AperFunction,ViaPad*%
%ADD14C,0.685800*%
%TD*%
G04 APERTURE END LIST*
D10*
%TO.N,GND*%
%TO.C,J1*%
X145660000Y-103410000D03*
X154300000Y-103410000D03*
D11*
X145660000Y-107410000D03*
X154300000Y-107410000D03*
%TD*%
D12*
%TO.N,Net-(U2-OUT)*%
%TO.C,J2*%
X160450000Y-100567500D03*
D13*
%TO.N,GND*%
X158450000Y-100567500D03*
%TD*%
D14*
%TO.N,GND*%
X145090000Y-87880000D03*
X165490000Y-98240000D03*
X154580000Y-86450000D03*
X167370000Y-99690000D03*
X162730000Y-88950000D03*
X149910000Y-104590000D03*
X165970000Y-88550000D03*
X131610000Y-97960000D03*
X165600000Y-81750000D03*
X158750000Y-96820000D03*
X154900000Y-93700000D03*
X165910000Y-90970000D03*
X144130000Y-101650000D03*
X131610000Y-93030000D03*
X141320000Y-100980000D03*
X149860000Y-92230000D03*
X137000000Y-81500000D03*
X136840000Y-85730000D03*
X155070000Y-90760000D03*
X145030000Y-91600000D03*
X155020000Y-87760000D03*
X162880000Y-82920000D03*
X148190000Y-101210000D03*
X141930000Y-103620000D03*
X163640000Y-99200000D03*
X137580000Y-90120000D03*
X155000000Y-92210000D03*
X141840000Y-106180000D03*
X131100000Y-89850000D03*
X165950000Y-89630000D03*
X140710000Y-99420000D03*
X138200000Y-101100000D03*
X165200000Y-107600000D03*
X144320000Y-104970000D03*
X156150000Y-83660000D03*
X166210000Y-105960000D03*
X164460000Y-95010000D03*
X164500000Y-88580000D03*
X140520000Y-81900000D03*
X143350000Y-107600000D03*
X154120000Y-99150000D03*
X164520000Y-82420000D03*
X151000000Y-92000000D03*
X134290000Y-88620000D03*
X164100000Y-84940000D03*
X162900000Y-94810000D03*
X156150000Y-82810000D03*
X141070000Y-92210000D03*
X167420000Y-90480000D03*
X134100000Y-107200000D03*
X155130000Y-89250000D03*
X164460000Y-91520000D03*
X138180000Y-96680000D03*
%TO.N,/5V_IN*%
X145950000Y-100320000D03*
%TO.N,/3V3*%
X152750000Y-83510000D03*
%TO.N,Net-(U1-EN)*%
X154325000Y-97530000D03*
%TO.N,Net-(C12-Pad1)*%
X134360000Y-90290000D03*
%TO.N,Net-(C13-Pad1)*%
X134220000Y-92320000D03*
%TO.N,Net-(C14-Pad1)*%
X134230000Y-93920000D03*
%TO.N,Net-(C15-Pad1)*%
X134220000Y-95490000D03*
%TO.N,Net-(C16-Pad1)*%
X134190000Y-97100000D03*
%TO.N,/PREVGL*%
X134180000Y-98700000D03*
%TO.N,/VCOM*%
X136570000Y-102190000D03*
%TO.N,/RES*%
X135420000Y-91270000D03*
X145750000Y-83510000D03*
X140210000Y-84230000D03*
%TO.N,/CS*%
X145340000Y-94780000D03*
%TO.N,/SCLK*%
X140800000Y-91170000D03*
X140990000Y-87160000D03*
X140694229Y-96005771D03*
%TO.N,/SDI*%
X143470000Y-91090000D03*
%TO.N,/DC*%
X138220000Y-93050000D03*
X144900000Y-84610000D03*
X140310000Y-85420000D03*
%TO.N,/BUSY*%
X140290000Y-87910000D03*
%TO.N,Net-(U1-IO33)*%
X138341252Y-93895946D03*
X142150000Y-93010000D03*
X132315000Y-102290000D03*
X132310000Y-104590000D03*
%TO.N,Net-(U1-IO34)*%
X138383919Y-94696081D03*
X141050000Y-93850000D03*
%TO.N,Net-(U1-IO35)*%
X167665000Y-102310000D03*
X167665000Y-104610000D03*
%TD*%
%TA.AperFunction,Conductor*%
%TO.N,GND*%
G36*
X168004418Y-80000816D02*
G01*
X168204561Y-80015130D01*
X168222063Y-80017647D01*
X168413797Y-80059355D01*
X168430755Y-80064334D01*
X168527059Y-80100254D01*
X168575476Y-80133024D01*
X169417865Y-81059653D01*
X169447278Y-81116706D01*
X169482351Y-81277932D01*
X169484869Y-81295443D01*
X169499184Y-81495580D01*
X169499500Y-81504427D01*
X169499500Y-83175500D01*
X169479815Y-83242539D01*
X169427011Y-83288294D01*
X169375500Y-83299500D01*
X168871155Y-83299500D01*
X168716510Y-83330261D01*
X168716498Y-83330264D01*
X168570827Y-83390602D01*
X168570814Y-83390609D01*
X168439711Y-83478210D01*
X168439707Y-83478213D01*
X168328213Y-83589707D01*
X168328210Y-83589711D01*
X168240609Y-83720814D01*
X168240602Y-83720827D01*
X168180264Y-83866498D01*
X168180261Y-83866510D01*
X168149500Y-84021153D01*
X168149500Y-87378846D01*
X168180261Y-87533489D01*
X168180264Y-87533501D01*
X168240602Y-87679172D01*
X168240609Y-87679185D01*
X168328210Y-87810288D01*
X168328213Y-87810292D01*
X168439707Y-87921786D01*
X168439711Y-87921789D01*
X168570814Y-88009390D01*
X168570827Y-88009397D01*
X168644078Y-88039738D01*
X168716503Y-88069737D01*
X168871153Y-88100499D01*
X168871156Y-88100500D01*
X168871158Y-88100500D01*
X168884108Y-88100500D01*
X169375052Y-88100500D01*
X169442091Y-88120185D01*
X169487846Y-88172989D01*
X169499052Y-88224589D01*
X169496720Y-91479745D01*
X169489999Y-100863400D01*
X169489947Y-100935589D01*
X169470214Y-101002614D01*
X169417378Y-101048331D01*
X169365947Y-101059500D01*
X168861155Y-101059500D01*
X168706510Y-101090261D01*
X168706498Y-101090264D01*
X168560827Y-101150602D01*
X168560814Y-101150609D01*
X168429711Y-101238210D01*
X168429707Y-101238213D01*
X168318213Y-101349707D01*
X168318210Y-101349711D01*
X168230609Y-101480814D01*
X168230602Y-101480827D01*
X168170264Y-101626498D01*
X168170261Y-101626508D01*
X168141975Y-101768711D01*
X168109590Y-101830622D01*
X168048874Y-101865196D01*
X167979104Y-101861456D01*
X167958357Y-101851906D01*
X167874745Y-101803632D01*
X167736540Y-101766600D01*
X167593460Y-101766600D01*
X167455255Y-101803632D01*
X167455253Y-101803632D01*
X167455253Y-101803633D01*
X167331345Y-101875172D01*
X167331342Y-101875174D01*
X167230174Y-101976342D01*
X167230172Y-101976345D01*
X167181558Y-102060547D01*
X167158632Y-102100255D01*
X167121600Y-102238460D01*
X167121600Y-102381540D01*
X167158632Y-102519745D01*
X167230172Y-102643655D01*
X167331345Y-102744828D01*
X167455255Y-102816368D01*
X167593460Y-102853400D01*
X167593462Y-102853400D01*
X167736537Y-102853400D01*
X167736540Y-102853400D01*
X167874745Y-102816368D01*
X167874747Y-102816366D01*
X167874749Y-102816366D01*
X167874750Y-102816365D01*
X167953499Y-102770899D01*
X168021399Y-102754425D01*
X168087426Y-102777277D01*
X168130617Y-102832197D01*
X168139500Y-102878285D01*
X168139500Y-104041714D01*
X168119815Y-104108753D01*
X168067011Y-104154508D01*
X167997853Y-104164452D01*
X167953500Y-104149101D01*
X167874748Y-104103633D01*
X167874749Y-104103633D01*
X167858419Y-104099257D01*
X167736540Y-104066600D01*
X167593460Y-104066600D01*
X167455255Y-104103632D01*
X167455253Y-104103632D01*
X167455253Y-104103633D01*
X167331345Y-104175172D01*
X167331342Y-104175174D01*
X167230174Y-104276342D01*
X167230172Y-104276345D01*
X167158632Y-104400255D01*
X167121600Y-104538460D01*
X167121600Y-104681540D01*
X167158632Y-104819745D01*
X167230172Y-104943655D01*
X167331345Y-105044828D01*
X167455255Y-105116368D01*
X167593460Y-105153400D01*
X167593462Y-105153400D01*
X167736537Y-105153400D01*
X167736540Y-105153400D01*
X167874745Y-105116368D01*
X167874747Y-105116366D01*
X167874749Y-105116366D01*
X167874750Y-105116365D01*
X167887962Y-105108737D01*
X167958357Y-105068093D01*
X168026256Y-105051620D01*
X168092284Y-105074472D01*
X168135475Y-105129392D01*
X168141975Y-105151288D01*
X168170261Y-105293491D01*
X168170264Y-105293501D01*
X168230602Y-105439172D01*
X168230609Y-105439185D01*
X168318210Y-105570288D01*
X168318213Y-105570292D01*
X168429707Y-105681786D01*
X168429711Y-105681789D01*
X168560814Y-105769390D01*
X168560827Y-105769397D01*
X168693589Y-105824388D01*
X168706503Y-105829737D01*
X168861153Y-105860499D01*
X168861156Y-105860500D01*
X168861158Y-105860500D01*
X168874108Y-105860500D01*
X169368412Y-105860500D01*
X169435451Y-105880185D01*
X169481206Y-105932989D01*
X169492410Y-105983919D01*
X169494002Y-106324473D01*
X169499471Y-107495363D01*
X169499156Y-107504788D01*
X169484869Y-107704556D01*
X169482351Y-107722068D01*
X169440646Y-107913787D01*
X169435662Y-107930763D01*
X169367091Y-108114607D01*
X169359740Y-108130701D01*
X169356788Y-108136107D01*
X169335638Y-108164360D01*
X168664361Y-108835637D01*
X168636107Y-108856788D01*
X168630701Y-108859740D01*
X168614607Y-108867091D01*
X168430763Y-108935662D01*
X168413787Y-108940646D01*
X168222068Y-108982351D01*
X168204557Y-108984869D01*
X168023779Y-108997799D01*
X168004417Y-108999184D01*
X167995572Y-108999500D01*
X155059433Y-108999500D01*
X154992394Y-108979815D01*
X154946639Y-108927011D01*
X154936695Y-108857853D01*
X154965720Y-108794297D01*
X154971752Y-108787819D01*
X155096167Y-108663403D01*
X155096170Y-108663399D01*
X155208340Y-108495526D01*
X155208347Y-108495513D01*
X155285609Y-108308983D01*
X155285612Y-108308974D01*
X155324999Y-108110958D01*
X155325000Y-108110955D01*
X155325000Y-107660000D01*
X154625000Y-107660000D01*
X154625000Y-107160000D01*
X155325000Y-107160000D01*
X155325000Y-106709045D01*
X155324999Y-106709041D01*
X155285612Y-106511025D01*
X155285609Y-106511016D01*
X155208347Y-106324486D01*
X155208340Y-106324473D01*
X155096170Y-106156600D01*
X155096167Y-106156596D01*
X154953403Y-106013832D01*
X154953399Y-106013829D01*
X154785526Y-105901659D01*
X154785513Y-105901652D01*
X154598984Y-105824390D01*
X154598977Y-105824388D01*
X154550000Y-105814645D01*
X154550000Y-106600382D01*
X154499554Y-106549936D01*
X154425445Y-106507149D01*
X154342787Y-106485000D01*
X154257213Y-106485000D01*
X154174555Y-106507149D01*
X154100446Y-106549936D01*
X154050000Y-106600382D01*
X154050000Y-105814646D01*
X154049999Y-105814645D01*
X154001022Y-105824388D01*
X154001015Y-105824390D01*
X153814486Y-105901652D01*
X153814473Y-105901659D01*
X153646600Y-106013829D01*
X153646596Y-106013832D01*
X153503832Y-106156596D01*
X153503829Y-106156600D01*
X153391659Y-106324473D01*
X153391652Y-106324486D01*
X153314390Y-106511016D01*
X153314387Y-106511025D01*
X153275000Y-106709041D01*
X153275000Y-107160000D01*
X153975000Y-107160000D01*
X153975000Y-107660000D01*
X153275000Y-107660000D01*
X153275000Y-108110958D01*
X153314387Y-108308974D01*
X153314390Y-108308983D01*
X153391652Y-108495513D01*
X153391659Y-108495526D01*
X153503829Y-108663399D01*
X153503832Y-108663403D01*
X153628248Y-108787819D01*
X153661733Y-108849142D01*
X153656749Y-108918834D01*
X153614877Y-108974767D01*
X153549413Y-108999184D01*
X153540567Y-108999500D01*
X146419433Y-108999500D01*
X146352394Y-108979815D01*
X146306639Y-108927011D01*
X146296695Y-108857853D01*
X146325720Y-108794297D01*
X146331752Y-108787819D01*
X146456167Y-108663403D01*
X146456170Y-108663399D01*
X146568340Y-108495526D01*
X146568347Y-108495513D01*
X146645609Y-108308983D01*
X146645612Y-108308974D01*
X146684999Y-108110958D01*
X146685000Y-108110955D01*
X146685000Y-107660000D01*
X145985000Y-107660000D01*
X145985000Y-107160000D01*
X146685000Y-107160000D01*
X146685000Y-106709045D01*
X146684999Y-106709041D01*
X146645612Y-106511025D01*
X146645609Y-106511016D01*
X146568347Y-106324486D01*
X146568340Y-106324473D01*
X146456170Y-106156600D01*
X146456167Y-106156596D01*
X146313403Y-106013832D01*
X146313399Y-106013829D01*
X146145526Y-105901659D01*
X146145513Y-105901652D01*
X145958984Y-105824390D01*
X145958977Y-105824388D01*
X145910000Y-105814645D01*
X145910000Y-106600382D01*
X145859554Y-106549936D01*
X145785445Y-106507149D01*
X145702787Y-106485000D01*
X145617213Y-106485000D01*
X145534555Y-106507149D01*
X145460446Y-106549936D01*
X145410000Y-106600382D01*
X145410000Y-105814646D01*
X145409999Y-105814645D01*
X145361022Y-105824388D01*
X145361015Y-105824390D01*
X145174486Y-105901652D01*
X145174473Y-105901659D01*
X145006600Y-106013829D01*
X145006596Y-106013832D01*
X144863832Y-106156596D01*
X144863829Y-106156600D01*
X144751659Y-106324473D01*
X144751652Y-106324486D01*
X144674390Y-106511016D01*
X144674387Y-106511025D01*
X144635000Y-106709041D01*
X144635000Y-107160000D01*
X145335000Y-107160000D01*
X145335000Y-107660000D01*
X144635000Y-107660000D01*
X144635000Y-108110958D01*
X144674387Y-108308974D01*
X144674390Y-108308983D01*
X144751652Y-108495513D01*
X144751659Y-108495526D01*
X144863829Y-108663399D01*
X144863832Y-108663403D01*
X144988248Y-108787819D01*
X145021733Y-108849142D01*
X145016749Y-108918834D01*
X144974877Y-108974767D01*
X144909413Y-108999184D01*
X144900567Y-108999500D01*
X132004428Y-108999500D01*
X131995582Y-108999184D01*
X131973622Y-108997613D01*
X131795442Y-108984869D01*
X131777931Y-108982351D01*
X131586212Y-108940646D01*
X131569236Y-108935662D01*
X131430510Y-108883919D01*
X131384051Y-108853254D01*
X131327901Y-108794297D01*
X130619734Y-108050721D01*
X130614893Y-108042982D01*
X130610261Y-108039515D01*
X130593348Y-108008543D01*
X130564334Y-107930755D01*
X130559355Y-107913797D01*
X130517647Y-107722063D01*
X130515130Y-107704556D01*
X130511943Y-107660000D01*
X130500816Y-107504418D01*
X130500500Y-107495572D01*
X130500500Y-107429010D01*
X130500153Y-107423905D01*
X130496818Y-106703528D01*
X130493400Y-105965074D01*
X130512774Y-105897944D01*
X130565366Y-105851945D01*
X130617399Y-105840500D01*
X131118844Y-105840500D01*
X131118845Y-105840499D01*
X131273497Y-105809737D01*
X131419179Y-105749394D01*
X131550289Y-105661789D01*
X131661789Y-105550289D01*
X131749394Y-105419179D01*
X131809737Y-105273497D01*
X131837509Y-105133879D01*
X131869894Y-105071968D01*
X131930609Y-105037394D01*
X132000379Y-105041133D01*
X132021126Y-105050683D01*
X132100251Y-105096366D01*
X132100252Y-105096366D01*
X132100255Y-105096368D01*
X132238460Y-105133400D01*
X132238462Y-105133400D01*
X132381537Y-105133400D01*
X132381540Y-105133400D01*
X132519745Y-105096368D01*
X132643655Y-105024828D01*
X132744828Y-104923655D01*
X132816368Y-104799745D01*
X132853400Y-104661540D01*
X132853400Y-104518460D01*
X132816368Y-104380255D01*
X132744828Y-104256345D01*
X132643655Y-104155172D01*
X132519745Y-104083632D01*
X132381540Y-104046600D01*
X132238460Y-104046600D01*
X132116580Y-104079257D01*
X132100251Y-104083633D01*
X132026500Y-104126214D01*
X131958600Y-104142687D01*
X131892573Y-104119835D01*
X131849382Y-104064913D01*
X131840500Y-104018827D01*
X131840500Y-102909041D01*
X144635000Y-102909041D01*
X144635000Y-103160000D01*
X145335000Y-103160000D01*
X145335000Y-103660000D01*
X144635000Y-103660000D01*
X144635000Y-103910958D01*
X144674387Y-104108974D01*
X144674390Y-104108983D01*
X144751652Y-104295513D01*
X144751659Y-104295526D01*
X144863829Y-104463399D01*
X144863832Y-104463403D01*
X145006596Y-104606167D01*
X145006600Y-104606170D01*
X145174473Y-104718340D01*
X145174486Y-104718347D01*
X145361016Y-104795609D01*
X145361025Y-104795612D01*
X145410000Y-104805353D01*
X145410000Y-104019618D01*
X145460446Y-104070064D01*
X145534555Y-104112851D01*
X145617213Y-104135000D01*
X145702787Y-104135000D01*
X145785445Y-104112851D01*
X145859554Y-104070064D01*
X145910000Y-104019618D01*
X145910000Y-104805352D01*
X145958974Y-104795612D01*
X145958983Y-104795609D01*
X146145513Y-104718347D01*
X146145526Y-104718340D01*
X146313399Y-104606170D01*
X146313403Y-104606167D01*
X146456167Y-104463403D01*
X146456170Y-104463399D01*
X146568340Y-104295526D01*
X146568347Y-104295513D01*
X146645609Y-104108983D01*
X146645612Y-104108974D01*
X146684999Y-103910958D01*
X146685000Y-103910955D01*
X146685000Y-103660000D01*
X145985000Y-103660000D01*
X145985000Y-103160000D01*
X146685000Y-103160000D01*
X146685000Y-102909045D01*
X146684999Y-102909041D01*
X153275000Y-102909041D01*
X153275000Y-103160000D01*
X153975000Y-103160000D01*
X153975000Y-103660000D01*
X153275000Y-103660000D01*
X153275000Y-103910958D01*
X153314387Y-104108974D01*
X153314390Y-104108983D01*
X153391652Y-104295513D01*
X153391659Y-104295526D01*
X153503829Y-104463399D01*
X153503832Y-104463403D01*
X153646596Y-104606167D01*
X153646600Y-104606170D01*
X153814473Y-104718340D01*
X153814486Y-104718347D01*
X154001016Y-104795609D01*
X154001025Y-104795612D01*
X154050000Y-104805353D01*
X154050000Y-104019618D01*
X154100446Y-104070064D01*
X154174555Y-104112851D01*
X154257213Y-104135000D01*
X154342787Y-104135000D01*
X154425445Y-104112851D01*
X154499554Y-104070064D01*
X154550000Y-104019618D01*
X154550000Y-104805352D01*
X154598974Y-104795612D01*
X154598983Y-104795609D01*
X154785513Y-104718347D01*
X154785526Y-104718340D01*
X154953399Y-104606170D01*
X154953403Y-104606167D01*
X155096167Y-104463403D01*
X155096170Y-104463399D01*
X155208340Y-104295526D01*
X155208347Y-104295513D01*
X155285609Y-104108983D01*
X155285612Y-104108974D01*
X155324999Y-103910958D01*
X155325000Y-103910955D01*
X155325000Y-103660000D01*
X154625000Y-103660000D01*
X154625000Y-103160000D01*
X155325000Y-103160000D01*
X155325000Y-102909045D01*
X155324999Y-102909041D01*
X155285612Y-102711025D01*
X155285609Y-102711016D01*
X155208347Y-102524486D01*
X155208340Y-102524473D01*
X155096170Y-102356600D01*
X155096167Y-102356596D01*
X154953403Y-102213832D01*
X154953399Y-102213829D01*
X154785526Y-102101659D01*
X154785513Y-102101652D01*
X154598984Y-102024390D01*
X154598977Y-102024388D01*
X154550000Y-102014645D01*
X154550000Y-102800382D01*
X154499554Y-102749936D01*
X154425445Y-102707149D01*
X154342787Y-102685000D01*
X154257213Y-102685000D01*
X154174555Y-102707149D01*
X154100446Y-102749936D01*
X154050000Y-102800382D01*
X154050000Y-102014646D01*
X154049999Y-102014645D01*
X154001022Y-102024388D01*
X154001015Y-102024390D01*
X153814486Y-102101652D01*
X153814473Y-102101659D01*
X153646600Y-102213829D01*
X153646596Y-102213832D01*
X153503832Y-102356596D01*
X153503829Y-102356600D01*
X153391659Y-102524473D01*
X153391652Y-102524486D01*
X153314390Y-102711016D01*
X153314387Y-102711025D01*
X153275000Y-102909041D01*
X146684999Y-102909041D01*
X146645612Y-102711025D01*
X146645609Y-102711016D01*
X146568347Y-102524486D01*
X146568340Y-102524473D01*
X146456170Y-102356600D01*
X146456167Y-102356596D01*
X146313403Y-102213832D01*
X146313399Y-102213829D01*
X146145526Y-102101659D01*
X146145513Y-102101652D01*
X145958984Y-102024390D01*
X145958977Y-102024388D01*
X145910000Y-102014645D01*
X145910000Y-102800382D01*
X145859554Y-102749936D01*
X145785445Y-102707149D01*
X145702787Y-102685000D01*
X145617213Y-102685000D01*
X145534555Y-102707149D01*
X145460446Y-102749936D01*
X145410000Y-102800382D01*
X145410000Y-102014646D01*
X145409999Y-102014645D01*
X145361022Y-102024388D01*
X145361015Y-102024390D01*
X145174486Y-102101652D01*
X145174473Y-102101659D01*
X145006600Y-102213829D01*
X145006596Y-102213832D01*
X144863832Y-102356596D01*
X144863829Y-102356600D01*
X144751659Y-102524473D01*
X144751652Y-102524486D01*
X144674390Y-102711016D01*
X144674387Y-102711025D01*
X144635000Y-102909041D01*
X131840500Y-102909041D01*
X131840500Y-102858285D01*
X131860185Y-102791246D01*
X131912989Y-102745491D01*
X131982147Y-102735547D01*
X132026501Y-102750899D01*
X132105249Y-102796365D01*
X132105250Y-102796366D01*
X132105252Y-102796366D01*
X132105255Y-102796368D01*
X132243460Y-102833400D01*
X132243462Y-102833400D01*
X132386537Y-102833400D01*
X132386540Y-102833400D01*
X132524745Y-102796368D01*
X132648655Y-102724828D01*
X132749828Y-102623655D01*
X132821368Y-102499745D01*
X132858400Y-102361540D01*
X132858400Y-102218460D01*
X132831605Y-102118460D01*
X136026600Y-102118460D01*
X136026600Y-102261540D01*
X136063632Y-102399745D01*
X136135172Y-102523655D01*
X136236345Y-102624828D01*
X136360255Y-102696368D01*
X136498460Y-102733400D01*
X136498462Y-102733400D01*
X136641537Y-102733400D01*
X136641540Y-102733400D01*
X136779745Y-102696368D01*
X136903655Y-102624828D01*
X137004828Y-102523655D01*
X137076368Y-102399745D01*
X137113400Y-102261540D01*
X137113400Y-102118460D01*
X137076368Y-101980255D01*
X137004828Y-101856345D01*
X136903655Y-101755172D01*
X136779745Y-101683632D01*
X136641540Y-101646600D01*
X136498460Y-101646600D01*
X136360255Y-101683632D01*
X136360253Y-101683632D01*
X136360253Y-101683633D01*
X136236345Y-101755172D01*
X136236342Y-101755174D01*
X136135174Y-101856342D01*
X136135172Y-101856345D01*
X136074911Y-101960720D01*
X136063632Y-101980255D01*
X136026600Y-102118460D01*
X132831605Y-102118460D01*
X132821368Y-102080255D01*
X132749828Y-101956345D01*
X132648655Y-101855172D01*
X132524745Y-101783632D01*
X132386540Y-101746600D01*
X132243460Y-101746600D01*
X132140799Y-101774108D01*
X132105251Y-101783633D01*
X132021641Y-101831906D01*
X131997426Y-101837780D01*
X131974536Y-101847621D01*
X131964062Y-101845874D01*
X131953741Y-101848379D01*
X131930194Y-101840229D01*
X131905617Y-101836132D01*
X131897748Y-101828999D01*
X131887714Y-101825526D01*
X131872311Y-101805940D01*
X131853851Y-101789206D01*
X131848614Y-101775807D01*
X131844523Y-101770605D01*
X131839912Y-101756781D01*
X131838832Y-101752774D01*
X131809737Y-101606503D01*
X131780210Y-101535218D01*
X131780209Y-101535214D01*
X131749397Y-101460827D01*
X131749390Y-101460814D01*
X131661789Y-101329711D01*
X131661786Y-101329707D01*
X131550292Y-101218213D01*
X131550288Y-101218210D01*
X131419185Y-101130609D01*
X131419172Y-101130602D01*
X131273501Y-101070264D01*
X131273489Y-101070261D01*
X131118845Y-101039500D01*
X131118842Y-101039500D01*
X131105892Y-101039500D01*
X130614948Y-101039500D01*
X130547909Y-101019815D01*
X130502154Y-100967011D01*
X130490948Y-100915411D01*
X130491425Y-100248460D01*
X145406600Y-100248460D01*
X145406600Y-100391540D01*
X145443632Y-100529745D01*
X145515172Y-100653655D01*
X145616345Y-100754828D01*
X145740255Y-100826368D01*
X145878460Y-100863400D01*
X145878462Y-100863400D01*
X146021537Y-100863400D01*
X146021540Y-100863400D01*
X146159745Y-100826368D01*
X146283655Y-100754828D01*
X146384828Y-100653655D01*
X146456368Y-100529745D01*
X146470587Y-100476678D01*
X157296000Y-100476678D01*
X157296000Y-100658321D01*
X157324415Y-100837725D01*
X157380548Y-101010484D01*
X157463012Y-101172330D01*
X157463014Y-101172334D01*
X157475048Y-101188895D01*
X157475049Y-101188896D01*
X158050000Y-100613945D01*
X158050000Y-100620161D01*
X158077259Y-100721894D01*
X158129920Y-100813106D01*
X158204394Y-100887580D01*
X158295606Y-100940241D01*
X158397339Y-100967500D01*
X158403554Y-100967500D01*
X157828602Y-101542449D01*
X157828603Y-101542450D01*
X157845165Y-101554485D01*
X157845179Y-101554493D01*
X158007012Y-101636950D01*
X158179774Y-101693084D01*
X158359179Y-101721500D01*
X158540821Y-101721500D01*
X158720225Y-101693084D01*
X158892984Y-101636951D01*
X159054831Y-101554486D01*
X159071396Y-101542449D01*
X158496447Y-100967500D01*
X158502661Y-100967500D01*
X158604394Y-100940241D01*
X158695606Y-100887580D01*
X158770080Y-100813106D01*
X158822741Y-100721894D01*
X158850000Y-100620161D01*
X158850000Y-100613946D01*
X159424949Y-101188895D01*
X159472771Y-101185133D01*
X159541148Y-101199499D01*
X159590904Y-101248551D01*
X159604114Y-101284558D01*
X159607132Y-101299729D01*
X159607132Y-101299730D01*
X159651447Y-101366052D01*
X159717769Y-101410367D01*
X159717770Y-101410368D01*
X159776247Y-101421999D01*
X159776250Y-101422000D01*
X159776252Y-101422000D01*
X161123750Y-101422000D01*
X161123751Y-101421999D01*
X161138568Y-101419052D01*
X161182229Y-101410368D01*
X161182229Y-101410367D01*
X161182231Y-101410367D01*
X161248552Y-101366052D01*
X161292867Y-101299731D01*
X161292867Y-101299729D01*
X161292868Y-101299729D01*
X161304499Y-101241252D01*
X161304500Y-101241250D01*
X161304500Y-99893749D01*
X161304499Y-99893747D01*
X161292868Y-99835270D01*
X161292867Y-99835269D01*
X161248552Y-99768947D01*
X161182230Y-99724632D01*
X161182229Y-99724631D01*
X161123752Y-99713000D01*
X161123748Y-99713000D01*
X159776252Y-99713000D01*
X159776247Y-99713000D01*
X159717770Y-99724631D01*
X159717769Y-99724632D01*
X159651447Y-99768947D01*
X159607132Y-99835269D01*
X159604114Y-99850442D01*
X159571726Y-99912352D01*
X159511010Y-99946924D01*
X159472771Y-99949865D01*
X159424949Y-99946102D01*
X158850000Y-100521052D01*
X158850000Y-100514839D01*
X158822741Y-100413106D01*
X158770080Y-100321894D01*
X158695606Y-100247420D01*
X158604394Y-100194759D01*
X158502661Y-100167500D01*
X158496447Y-100167500D01*
X159071396Y-99592549D01*
X159071395Y-99592548D01*
X159054834Y-99580514D01*
X159054830Y-99580512D01*
X158892984Y-99498048D01*
X158720225Y-99441915D01*
X158540821Y-99413500D01*
X158359179Y-99413500D01*
X158179774Y-99441915D01*
X158007015Y-99498048D01*
X157845170Y-99580512D01*
X157845161Y-99580518D01*
X157828603Y-99592548D01*
X157828602Y-99592549D01*
X158403554Y-100167500D01*
X158397339Y-100167500D01*
X158295606Y-100194759D01*
X158204394Y-100247420D01*
X158129920Y-100321894D01*
X158077259Y-100413106D01*
X158050000Y-100514839D01*
X158050000Y-100521053D01*
X157475049Y-99946102D01*
X157475048Y-99946103D01*
X157463018Y-99962661D01*
X157463012Y-99962670D01*
X157380548Y-100124515D01*
X157324415Y-100297274D01*
X157296000Y-100476678D01*
X146470587Y-100476678D01*
X146493400Y-100391540D01*
X146493400Y-100248460D01*
X146456368Y-100110255D01*
X146384828Y-99986345D01*
X146283655Y-99885172D01*
X146159745Y-99813632D01*
X146021540Y-99776600D01*
X145878460Y-99776600D01*
X145740255Y-99813632D01*
X145740253Y-99813632D01*
X145740253Y-99813633D01*
X145616345Y-99885172D01*
X145616342Y-99885174D01*
X145515174Y-99986342D01*
X145515172Y-99986345D01*
X145443632Y-100110255D01*
X145406600Y-100248460D01*
X130491425Y-100248460D01*
X130491431Y-100240244D01*
X130491861Y-99639720D01*
X130492585Y-98628460D01*
X133636600Y-98628460D01*
X133636600Y-98771540D01*
X133673632Y-98909745D01*
X133745172Y-99033655D01*
X133846345Y-99134828D01*
X133970255Y-99206368D01*
X134108460Y-99243400D01*
X134108462Y-99243400D01*
X134251537Y-99243400D01*
X134251540Y-99243400D01*
X134389745Y-99206368D01*
X134513655Y-99134828D01*
X134614828Y-99033655D01*
X134686368Y-98909745D01*
X134723400Y-98771540D01*
X134723400Y-98628460D01*
X134686368Y-98490255D01*
X134614828Y-98366345D01*
X134513655Y-98265172D01*
X134389745Y-98193632D01*
X134251540Y-98156600D01*
X134108460Y-98156600D01*
X133970255Y-98193632D01*
X133970253Y-98193632D01*
X133970253Y-98193633D01*
X133846345Y-98265172D01*
X133846342Y-98265174D01*
X133745174Y-98366342D01*
X133745172Y-98366345D01*
X133673632Y-98490255D01*
X133636600Y-98628460D01*
X130492585Y-98628460D01*
X130492591Y-98620244D01*
X130493730Y-97028460D01*
X133646600Y-97028460D01*
X133646600Y-97171540D01*
X133683632Y-97309745D01*
X133755172Y-97433655D01*
X133856345Y-97534828D01*
X133980255Y-97606368D01*
X134118460Y-97643400D01*
X134118462Y-97643400D01*
X134261537Y-97643400D01*
X134261540Y-97643400D01*
X134399745Y-97606368D01*
X134523655Y-97534828D01*
X134600023Y-97458460D01*
X153781600Y-97458460D01*
X153781600Y-97601540D01*
X153818632Y-97739745D01*
X153890172Y-97863655D01*
X153991345Y-97964828D01*
X154115255Y-98036368D01*
X154253460Y-98073400D01*
X154253462Y-98073400D01*
X154396537Y-98073400D01*
X154396540Y-98073400D01*
X154534745Y-98036368D01*
X154658655Y-97964828D01*
X154759828Y-97863655D01*
X154831368Y-97739745D01*
X154868400Y-97601540D01*
X154868400Y-97458460D01*
X154831368Y-97320255D01*
X154759828Y-97196345D01*
X154658655Y-97095172D01*
X154534745Y-97023632D01*
X154396540Y-96986600D01*
X154253460Y-96986600D01*
X154115255Y-97023632D01*
X154115253Y-97023632D01*
X154115253Y-97023633D01*
X153991345Y-97095172D01*
X153991342Y-97095174D01*
X153890174Y-97196342D01*
X153890172Y-97196345D01*
X153818632Y-97320255D01*
X153781600Y-97458460D01*
X134600023Y-97458460D01*
X134624828Y-97433655D01*
X134696368Y-97309745D01*
X134733400Y-97171540D01*
X134733400Y-97028460D01*
X134696368Y-96890255D01*
X134624828Y-96766345D01*
X134523655Y-96665172D01*
X134399745Y-96593632D01*
X134261540Y-96556600D01*
X134118460Y-96556600D01*
X133980255Y-96593632D01*
X133980253Y-96593632D01*
X133980253Y-96593633D01*
X133856345Y-96665172D01*
X133856342Y-96665174D01*
X133755174Y-96766342D01*
X133755172Y-96766345D01*
X133683632Y-96890255D01*
X133646600Y-97028460D01*
X130493730Y-97028460D01*
X130493736Y-97020244D01*
X130494780Y-95561537D01*
X130494882Y-95418460D01*
X133676600Y-95418460D01*
X133676600Y-95561540D01*
X133713632Y-95699745D01*
X133785172Y-95823655D01*
X133886345Y-95924828D01*
X134010255Y-95996368D01*
X134148460Y-96033400D01*
X134148462Y-96033400D01*
X134291537Y-96033400D01*
X134291540Y-96033400D01*
X134429745Y-95996368D01*
X134537369Y-95934231D01*
X140150829Y-95934231D01*
X140150829Y-96077311D01*
X140187861Y-96215516D01*
X140259401Y-96339426D01*
X140360574Y-96440599D01*
X140484484Y-96512139D01*
X140622689Y-96549171D01*
X140622691Y-96549171D01*
X140765766Y-96549171D01*
X140765769Y-96549171D01*
X140903974Y-96512139D01*
X141027884Y-96440599D01*
X141129057Y-96339426D01*
X141200597Y-96215516D01*
X141237629Y-96077311D01*
X141237629Y-95934231D01*
X141200597Y-95796026D01*
X141129057Y-95672116D01*
X141027884Y-95570943D01*
X140903974Y-95499403D01*
X140765769Y-95462371D01*
X140622689Y-95462371D01*
X140484484Y-95499403D01*
X140484482Y-95499403D01*
X140484482Y-95499404D01*
X140360574Y-95570943D01*
X140360571Y-95570945D01*
X140259403Y-95672113D01*
X140259401Y-95672116D01*
X140187861Y-95796026D01*
X140150829Y-95934231D01*
X134537369Y-95934231D01*
X134553655Y-95924828D01*
X134654828Y-95823655D01*
X134726368Y-95699745D01*
X134763400Y-95561540D01*
X134763400Y-95418460D01*
X134726368Y-95280255D01*
X134654828Y-95156345D01*
X134553655Y-95055172D01*
X134429745Y-94983632D01*
X134291540Y-94946600D01*
X134148460Y-94946600D01*
X134010255Y-94983632D01*
X134010253Y-94983632D01*
X134010253Y-94983633D01*
X133886345Y-95055172D01*
X133886342Y-95055174D01*
X133785174Y-95156342D01*
X133785172Y-95156345D01*
X133713632Y-95280255D01*
X133676600Y-95418460D01*
X130494882Y-95418460D01*
X130496006Y-93848460D01*
X133686600Y-93848460D01*
X133686600Y-93991540D01*
X133723632Y-94129745D01*
X133795172Y-94253655D01*
X133896345Y-94354828D01*
X134020255Y-94426368D01*
X134158460Y-94463400D01*
X134158462Y-94463400D01*
X134301537Y-94463400D01*
X134301540Y-94463400D01*
X134439745Y-94426368D01*
X134563655Y-94354828D01*
X134664828Y-94253655D01*
X134736368Y-94129745D01*
X134773400Y-93991540D01*
X134773400Y-93848460D01*
X134736368Y-93710255D01*
X134664828Y-93586345D01*
X134563655Y-93485172D01*
X134439745Y-93413632D01*
X134301540Y-93376600D01*
X134158460Y-93376600D01*
X134020255Y-93413632D01*
X134020253Y-93413632D01*
X134020253Y-93413633D01*
X133896345Y-93485172D01*
X133896342Y-93485174D01*
X133795174Y-93586342D01*
X133795172Y-93586345D01*
X133723632Y-93710255D01*
X133686600Y-93848460D01*
X130496006Y-93848460D01*
X130496629Y-92978460D01*
X137676600Y-92978460D01*
X137676600Y-93121540D01*
X137713632Y-93259745D01*
X137785172Y-93383655D01*
X137826931Y-93425414D01*
X137860148Y-93458631D01*
X137893632Y-93519955D01*
X137888647Y-93589646D01*
X137879853Y-93608312D01*
X137834885Y-93686197D01*
X137834884Y-93686201D01*
X137797852Y-93824406D01*
X137797852Y-93967486D01*
X137834884Y-94105691D01*
X137906424Y-94229601D01*
X137906426Y-94229603D01*
X137914810Y-94237987D01*
X137948295Y-94299310D01*
X137943311Y-94369002D01*
X137934516Y-94387668D01*
X137877552Y-94486332D01*
X137877551Y-94486336D01*
X137840519Y-94624541D01*
X137840519Y-94767621D01*
X137877551Y-94905826D01*
X137949091Y-95029736D01*
X138050264Y-95130909D01*
X138174174Y-95202449D01*
X138312379Y-95239481D01*
X138312381Y-95239481D01*
X138455456Y-95239481D01*
X138455459Y-95239481D01*
X138593664Y-95202449D01*
X138717574Y-95130909D01*
X138818747Y-95029736D01*
X138890287Y-94905826D01*
X138927319Y-94767621D01*
X138927319Y-94708460D01*
X144796600Y-94708460D01*
X144796600Y-94851540D01*
X144833632Y-94989745D01*
X144905172Y-95113655D01*
X145006345Y-95214828D01*
X145130255Y-95286368D01*
X145268460Y-95323400D01*
X145268462Y-95323400D01*
X145411537Y-95323400D01*
X145411540Y-95323400D01*
X145549745Y-95286368D01*
X145673655Y-95214828D01*
X145774828Y-95113655D01*
X145846368Y-94989745D01*
X145883400Y-94851540D01*
X145883400Y-94708460D01*
X145846368Y-94570255D01*
X145774828Y-94446345D01*
X145673655Y-94345172D01*
X145549745Y-94273632D01*
X145411540Y-94236600D01*
X145268460Y-94236600D01*
X145130255Y-94273632D01*
X145130253Y-94273632D01*
X145130253Y-94273633D01*
X145006345Y-94345172D01*
X145006342Y-94345174D01*
X144905174Y-94446342D01*
X144905172Y-94446345D01*
X144833632Y-94570255D01*
X144796600Y-94708460D01*
X138927319Y-94708460D01*
X138927319Y-94624541D01*
X138890287Y-94486336D01*
X138818747Y-94362426D01*
X138810360Y-94354039D01*
X138776875Y-94292716D01*
X138781859Y-94223024D01*
X138790650Y-94204363D01*
X138847620Y-94105691D01*
X138884652Y-93967486D01*
X138884652Y-93824406D01*
X138872341Y-93778460D01*
X140506600Y-93778460D01*
X140506600Y-93921540D01*
X140543632Y-94059745D01*
X140615172Y-94183655D01*
X140716345Y-94284828D01*
X140840255Y-94356368D01*
X140978460Y-94393400D01*
X140978462Y-94393400D01*
X141121537Y-94393400D01*
X141121540Y-94393400D01*
X141259745Y-94356368D01*
X141383655Y-94284828D01*
X141484828Y-94183655D01*
X141556368Y-94059745D01*
X141593400Y-93921540D01*
X141593400Y-93778460D01*
X141556368Y-93640255D01*
X141484828Y-93516345D01*
X141383655Y-93415172D01*
X141259745Y-93343632D01*
X141121540Y-93306600D01*
X140978460Y-93306600D01*
X140840255Y-93343632D01*
X140840253Y-93343632D01*
X140840253Y-93343633D01*
X140716345Y-93415172D01*
X140716342Y-93415174D01*
X140615174Y-93516342D01*
X140615172Y-93516345D01*
X140543632Y-93640255D01*
X140506600Y-93778460D01*
X138872341Y-93778460D01*
X138847620Y-93686201D01*
X138776080Y-93562291D01*
X138701103Y-93487314D01*
X138667619Y-93425990D01*
X138672604Y-93356299D01*
X138681393Y-93337641D01*
X138726368Y-93259745D01*
X138763400Y-93121540D01*
X138763400Y-92978460D01*
X138752682Y-92938460D01*
X141606600Y-92938460D01*
X141606600Y-93081540D01*
X141643632Y-93219745D01*
X141715172Y-93343655D01*
X141816345Y-93444828D01*
X141940255Y-93516368D01*
X142078460Y-93553400D01*
X142078462Y-93553400D01*
X142221537Y-93553400D01*
X142221540Y-93553400D01*
X142359745Y-93516368D01*
X142483655Y-93444828D01*
X142584828Y-93343655D01*
X142656368Y-93219745D01*
X142693400Y-93081540D01*
X142693400Y-92938460D01*
X142656368Y-92800255D01*
X142584828Y-92676345D01*
X142483655Y-92575172D01*
X142359745Y-92503632D01*
X142221540Y-92466600D01*
X142078460Y-92466600D01*
X141940255Y-92503632D01*
X141940253Y-92503632D01*
X141940253Y-92503633D01*
X141816345Y-92575172D01*
X141816342Y-92575174D01*
X141715174Y-92676342D01*
X141715172Y-92676345D01*
X141643632Y-92800255D01*
X141606600Y-92938460D01*
X138752682Y-92938460D01*
X138726368Y-92840255D01*
X138654828Y-92716345D01*
X138553655Y-92615172D01*
X138429745Y-92543632D01*
X138291540Y-92506600D01*
X138148460Y-92506600D01*
X138010255Y-92543632D01*
X138010253Y-92543632D01*
X138010253Y-92543633D01*
X137886345Y-92615172D01*
X137886342Y-92615174D01*
X137785174Y-92716342D01*
X137785172Y-92716345D01*
X137713632Y-92840255D01*
X137676600Y-92978460D01*
X130496629Y-92978460D01*
X130497152Y-92248460D01*
X133676600Y-92248460D01*
X133676600Y-92391540D01*
X133713632Y-92529745D01*
X133785172Y-92653655D01*
X133886345Y-92754828D01*
X134010255Y-92826368D01*
X134148460Y-92863400D01*
X134148462Y-92863400D01*
X134291537Y-92863400D01*
X134291540Y-92863400D01*
X134429745Y-92826368D01*
X134553655Y-92754828D01*
X134654828Y-92653655D01*
X134726368Y-92529745D01*
X134763400Y-92391540D01*
X134763400Y-92248460D01*
X134726368Y-92110255D01*
X134654828Y-91986345D01*
X134553655Y-91885172D01*
X134429745Y-91813632D01*
X134291540Y-91776600D01*
X134148460Y-91776600D01*
X134010255Y-91813632D01*
X134010253Y-91813632D01*
X134010253Y-91813633D01*
X133886345Y-91885172D01*
X133886342Y-91885174D01*
X133785174Y-91986342D01*
X133785172Y-91986345D01*
X133713632Y-92110255D01*
X133676600Y-92248460D01*
X130497152Y-92248460D01*
X130497904Y-91198460D01*
X134876600Y-91198460D01*
X134876600Y-91341540D01*
X134913632Y-91479745D01*
X134985172Y-91603655D01*
X135086345Y-91704828D01*
X135210255Y-91776368D01*
X135348460Y-91813400D01*
X135348462Y-91813400D01*
X135491537Y-91813400D01*
X135491540Y-91813400D01*
X135629745Y-91776368D01*
X135753655Y-91704828D01*
X135854828Y-91603655D01*
X135926368Y-91479745D01*
X135963400Y-91341540D01*
X135963400Y-91198460D01*
X135936605Y-91098460D01*
X140256600Y-91098460D01*
X140256600Y-91241540D01*
X140293632Y-91379745D01*
X140365172Y-91503655D01*
X140466345Y-91604828D01*
X140590255Y-91676368D01*
X140728460Y-91713400D01*
X140728462Y-91713400D01*
X140871537Y-91713400D01*
X140871540Y-91713400D01*
X141009745Y-91676368D01*
X141133655Y-91604828D01*
X141234828Y-91503655D01*
X141306368Y-91379745D01*
X141343400Y-91241540D01*
X141343400Y-91098460D01*
X141321964Y-91018460D01*
X142926600Y-91018460D01*
X142926600Y-91161540D01*
X142963632Y-91299745D01*
X143035172Y-91423655D01*
X143136345Y-91524828D01*
X143260255Y-91596368D01*
X143398460Y-91633400D01*
X143398462Y-91633400D01*
X143541537Y-91633400D01*
X143541540Y-91633400D01*
X143679745Y-91596368D01*
X143803655Y-91524828D01*
X143904828Y-91423655D01*
X143976368Y-91299745D01*
X144013400Y-91161540D01*
X144013400Y-91018460D01*
X143976368Y-90880255D01*
X143904828Y-90756345D01*
X143803655Y-90655172D01*
X143679745Y-90583632D01*
X143541540Y-90546600D01*
X143398460Y-90546600D01*
X143260255Y-90583632D01*
X143260253Y-90583632D01*
X143260253Y-90583633D01*
X143136345Y-90655172D01*
X143136342Y-90655174D01*
X143035174Y-90756342D01*
X143035172Y-90756345D01*
X143012065Y-90796368D01*
X142963632Y-90880255D01*
X142926600Y-91018460D01*
X141321964Y-91018460D01*
X141306368Y-90960255D01*
X141234828Y-90836345D01*
X141133655Y-90735172D01*
X141009745Y-90663632D01*
X140871540Y-90626600D01*
X140728460Y-90626600D01*
X140590255Y-90663632D01*
X140590253Y-90663632D01*
X140590253Y-90663633D01*
X140466345Y-90735172D01*
X140466342Y-90735174D01*
X140365174Y-90836342D01*
X140365172Y-90836345D01*
X140307437Y-90936345D01*
X140293632Y-90960255D01*
X140256600Y-91098460D01*
X135936605Y-91098460D01*
X135926368Y-91060255D01*
X135854828Y-90936345D01*
X135753655Y-90835172D01*
X135629745Y-90763632D01*
X135491540Y-90726600D01*
X135348460Y-90726600D01*
X135210255Y-90763632D01*
X135210253Y-90763632D01*
X135210253Y-90763633D01*
X135086345Y-90835172D01*
X135086342Y-90835174D01*
X134985174Y-90936342D01*
X134985172Y-90936345D01*
X134937763Y-91018460D01*
X134913632Y-91060255D01*
X134876600Y-91198460D01*
X130497904Y-91198460D01*
X130497930Y-91161540D01*
X130498214Y-90763632D01*
X130498604Y-90218460D01*
X133816600Y-90218460D01*
X133816600Y-90361540D01*
X133853632Y-90499745D01*
X133925172Y-90623655D01*
X134026345Y-90724828D01*
X134150255Y-90796368D01*
X134288460Y-90833400D01*
X134288462Y-90833400D01*
X134431537Y-90833400D01*
X134431540Y-90833400D01*
X134569745Y-90796368D01*
X134693655Y-90724828D01*
X134794828Y-90623655D01*
X134866368Y-90499745D01*
X134903400Y-90361540D01*
X134903400Y-90218460D01*
X134866368Y-90080255D01*
X134794828Y-89956345D01*
X134693655Y-89855172D01*
X134569745Y-89783632D01*
X134431540Y-89746600D01*
X134288460Y-89746600D01*
X134150255Y-89783632D01*
X134150253Y-89783632D01*
X134150253Y-89783633D01*
X134026345Y-89855172D01*
X134026342Y-89855174D01*
X133925174Y-89956342D01*
X133925172Y-89956345D01*
X133853632Y-90080255D01*
X133816600Y-90218460D01*
X130498604Y-90218460D01*
X130500053Y-88194409D01*
X130519786Y-88127386D01*
X130572622Y-88081669D01*
X130624053Y-88070500D01*
X131128844Y-88070500D01*
X131128845Y-88070499D01*
X131283497Y-88039737D01*
X131423998Y-87981540D01*
X131429172Y-87979397D01*
X131429172Y-87979396D01*
X131429179Y-87979394D01*
X131560289Y-87891789D01*
X131613618Y-87838460D01*
X139746600Y-87838460D01*
X139746600Y-87981540D01*
X139783632Y-88119745D01*
X139855172Y-88243655D01*
X139956345Y-88344828D01*
X140080255Y-88416368D01*
X140218460Y-88453400D01*
X140218462Y-88453400D01*
X140361537Y-88453400D01*
X140361540Y-88453400D01*
X140499745Y-88416368D01*
X140623655Y-88344828D01*
X140724828Y-88243655D01*
X140796368Y-88119745D01*
X140833400Y-87981540D01*
X140833400Y-87838460D01*
X140833400Y-87830333D01*
X140836140Y-87830333D01*
X140844843Y-87774545D01*
X140891225Y-87722291D01*
X140957014Y-87703400D01*
X141061537Y-87703400D01*
X141061540Y-87703400D01*
X141199745Y-87666368D01*
X141323655Y-87594828D01*
X141424828Y-87493655D01*
X141496368Y-87369745D01*
X141533400Y-87231540D01*
X141533400Y-87088460D01*
X141496368Y-86950255D01*
X141424828Y-86826345D01*
X141323655Y-86725172D01*
X141199745Y-86653632D01*
X141061540Y-86616600D01*
X140918460Y-86616600D01*
X140780255Y-86653632D01*
X140780253Y-86653632D01*
X140780253Y-86653633D01*
X140656345Y-86725172D01*
X140656342Y-86725174D01*
X140555174Y-86826342D01*
X140555172Y-86826345D01*
X140483632Y-86950255D01*
X140446600Y-87088460D01*
X140446600Y-87088462D01*
X140446600Y-87239667D01*
X140443860Y-87239667D01*
X140435157Y-87295455D01*
X140388775Y-87347709D01*
X140322986Y-87366600D01*
X140218460Y-87366600D01*
X140080255Y-87403632D01*
X140080253Y-87403632D01*
X140080253Y-87403633D01*
X139956345Y-87475172D01*
X139956342Y-87475174D01*
X139855174Y-87576342D01*
X139855172Y-87576345D01*
X139783632Y-87700255D01*
X139746600Y-87838460D01*
X131613618Y-87838460D01*
X131671789Y-87780289D01*
X131675627Y-87774545D01*
X131684384Y-87761441D01*
X131759390Y-87649185D01*
X131759390Y-87649184D01*
X131759394Y-87649179D01*
X131819737Y-87503497D01*
X131850500Y-87348842D01*
X131850500Y-87270000D01*
X131850500Y-87204108D01*
X131850500Y-84158460D01*
X139666600Y-84158460D01*
X139666600Y-84301540D01*
X139703632Y-84439745D01*
X139775172Y-84563655D01*
X139876345Y-84664828D01*
X139983651Y-84726782D01*
X140000253Y-84736367D01*
X140004940Y-84738308D01*
X140059346Y-84782146D01*
X140081415Y-84848439D01*
X140064139Y-84916139D01*
X140019496Y-84960258D01*
X139976348Y-84985170D01*
X139976342Y-84985174D01*
X139875174Y-85086342D01*
X139875172Y-85086345D01*
X139803632Y-85210255D01*
X139766600Y-85348460D01*
X139766600Y-85491540D01*
X139803632Y-85629745D01*
X139875172Y-85753655D01*
X139976345Y-85854828D01*
X140100255Y-85926368D01*
X140238460Y-85963400D01*
X140238462Y-85963400D01*
X140381537Y-85963400D01*
X140381540Y-85963400D01*
X140519745Y-85926368D01*
X140643655Y-85854828D01*
X140744828Y-85753655D01*
X140816368Y-85629745D01*
X140853400Y-85491540D01*
X140853400Y-85348460D01*
X140816368Y-85210255D01*
X140744828Y-85086345D01*
X140643655Y-84985172D01*
X140571744Y-84943654D01*
X140519744Y-84913631D01*
X140515054Y-84911689D01*
X140460650Y-84867849D01*
X140438584Y-84801555D01*
X140455862Y-84733855D01*
X140500502Y-84689742D01*
X140543655Y-84664828D01*
X140644828Y-84563655D01*
X140659374Y-84538460D01*
X144356600Y-84538460D01*
X144356600Y-84681540D01*
X144393632Y-84819745D01*
X144465172Y-84943655D01*
X144566345Y-85044828D01*
X144690255Y-85116368D01*
X144828460Y-85153400D01*
X144828462Y-85153400D01*
X144971537Y-85153400D01*
X144971540Y-85153400D01*
X145109745Y-85116368D01*
X145233655Y-85044828D01*
X145334828Y-84943655D01*
X145406368Y-84819745D01*
X145443400Y-84681540D01*
X145443400Y-84538460D01*
X145406368Y-84400255D01*
X145334828Y-84276345D01*
X145233655Y-84175172D01*
X145109745Y-84103632D01*
X144971540Y-84066600D01*
X144828460Y-84066600D01*
X144690255Y-84103632D01*
X144690253Y-84103632D01*
X144690253Y-84103633D01*
X144566345Y-84175172D01*
X144566342Y-84175174D01*
X144465174Y-84276342D01*
X144465172Y-84276345D01*
X144393632Y-84400255D01*
X144356600Y-84538460D01*
X140659374Y-84538460D01*
X140716368Y-84439745D01*
X140753400Y-84301540D01*
X140753400Y-84158460D01*
X140716368Y-84020255D01*
X140644828Y-83896345D01*
X140543655Y-83795172D01*
X140419745Y-83723632D01*
X140281540Y-83686600D01*
X140138460Y-83686600D01*
X140000255Y-83723632D01*
X140000253Y-83723632D01*
X140000253Y-83723633D01*
X139876345Y-83795172D01*
X139876342Y-83795174D01*
X139775174Y-83896342D01*
X139775172Y-83896345D01*
X139712955Y-84004108D01*
X139703632Y-84020255D01*
X139666600Y-84158460D01*
X131850500Y-84158460D01*
X131850500Y-84004108D01*
X131850500Y-83991158D01*
X131850500Y-83991155D01*
X131850499Y-83991153D01*
X131831640Y-83896342D01*
X131819737Y-83836503D01*
X131771823Y-83720827D01*
X131759397Y-83690827D01*
X131759390Y-83690814D01*
X131671789Y-83559711D01*
X131671786Y-83559707D01*
X131560292Y-83448213D01*
X131560288Y-83448210D01*
X131545696Y-83438460D01*
X145206600Y-83438460D01*
X145206600Y-83581540D01*
X145243632Y-83719745D01*
X145315172Y-83843655D01*
X145416345Y-83944828D01*
X145540255Y-84016368D01*
X145678460Y-84053400D01*
X145678462Y-84053400D01*
X145821537Y-84053400D01*
X145821540Y-84053400D01*
X145959745Y-84016368D01*
X146083655Y-83944828D01*
X146184828Y-83843655D01*
X146256368Y-83719745D01*
X146293400Y-83581540D01*
X146293400Y-83438460D01*
X152206600Y-83438460D01*
X152206600Y-83581540D01*
X152243632Y-83719745D01*
X152315172Y-83843655D01*
X152416345Y-83944828D01*
X152540255Y-84016368D01*
X152678460Y-84053400D01*
X152678462Y-84053400D01*
X152821537Y-84053400D01*
X152821540Y-84053400D01*
X152959745Y-84016368D01*
X153083655Y-83944828D01*
X153184828Y-83843655D01*
X153256368Y-83719745D01*
X153293400Y-83581540D01*
X153293400Y-83438460D01*
X153256368Y-83300255D01*
X153184828Y-83176345D01*
X153083655Y-83075172D01*
X152959745Y-83003632D01*
X152821540Y-82966600D01*
X152678460Y-82966600D01*
X152540255Y-83003632D01*
X152540253Y-83003632D01*
X152540253Y-83003633D01*
X152416345Y-83075172D01*
X152416342Y-83075174D01*
X152315174Y-83176342D01*
X152315172Y-83176345D01*
X152261389Y-83269500D01*
X152243632Y-83300255D01*
X152206600Y-83438460D01*
X146293400Y-83438460D01*
X146256368Y-83300255D01*
X146184828Y-83176345D01*
X146083655Y-83075172D01*
X145959745Y-83003632D01*
X145821540Y-82966600D01*
X145678460Y-82966600D01*
X145540255Y-83003632D01*
X145540253Y-83003632D01*
X145540253Y-83003633D01*
X145416345Y-83075172D01*
X145416342Y-83075174D01*
X145315174Y-83176342D01*
X145315172Y-83176345D01*
X145261389Y-83269500D01*
X145243632Y-83300255D01*
X145206600Y-83438460D01*
X131545696Y-83438460D01*
X131429185Y-83360609D01*
X131429172Y-83360602D01*
X131283501Y-83300264D01*
X131283489Y-83300261D01*
X131128845Y-83269500D01*
X131128842Y-83269500D01*
X131115892Y-83269500D01*
X130624500Y-83269500D01*
X130557461Y-83249815D01*
X130511706Y-83197011D01*
X130500500Y-83145500D01*
X130500500Y-81504427D01*
X130500816Y-81495581D01*
X130515130Y-81295443D01*
X130517648Y-81277932D01*
X130552721Y-81116702D01*
X130582130Y-81059655D01*
X131424523Y-80133023D01*
X131472941Y-80100255D01*
X131569236Y-80064338D01*
X131586199Y-80059356D01*
X131777938Y-80017646D01*
X131795436Y-80015130D01*
X131995582Y-80000816D01*
X132004428Y-80000500D01*
X132065892Y-80000500D01*
X167934108Y-80000500D01*
X167995572Y-80000500D01*
X168004418Y-80000816D01*
G37*
%TD.AperFunction*%
%TD*%
M02*
