M48
; DRILL file {KiCad 9.0.7} date 2026-03-14T13:24:04+0100
; FORMAT={-:-/ absolute / metric / decimal}
; #@! TF.CreationDate,2026-03-14T13:24:04+01:00
; #@! TF.GenerationSoftware,Kicad,Pcbnew,9.0.7
; #@! TF.FileFunction,Plated,1,4,PTH
FMAT,2
METRIC
; #@! TA.AperFunction,Plated,PTH,ViaDrill
T1C0.330
; #@! TA.AperFunction,Plated,PTH,ComponentDrill
T2C0.650
; #@! TA.AperFunction,Plated,PTH,ComponentDrill
T3C0.800
%
G90
G05
T1
X131.1Y-89.85
X131.61Y-93.03
X131.61Y-97.96
X132.31Y-104.59
X132.315Y-102.29
X134.1Y-107.2
X134.18Y-98.7
X134.19Y-97.1
X134.22Y-92.32
X134.22Y-95.49
X134.23Y-93.92
X134.29Y-88.62
X134.36Y-90.29
X135.42Y-91.27
X136.57Y-102.19
X136.84Y-85.73
X137.0Y-81.5
X137.58Y-90.12
X138.18Y-96.68
X138.2Y-101.1
X138.22Y-93.05
X138.341Y-93.896
X138.384Y-94.696
X140.21Y-84.23
X140.29Y-87.91
X140.31Y-85.42
X140.52Y-81.9
X140.694Y-96.006
X140.71Y-99.42
X140.8Y-91.17
X140.99Y-87.16
X141.05Y-93.85
X141.07Y-92.21
X141.32Y-100.98
X141.84Y-106.18
X141.93Y-103.62
X142.15Y-93.01
X143.35Y-107.6
X143.47Y-91.09
X144.13Y-101.65
X144.32Y-104.97
X144.9Y-84.61
X145.03Y-91.6
X145.09Y-87.88
X145.34Y-94.78
X145.75Y-83.51
X145.95Y-100.32
X148.19Y-101.21
X149.86Y-92.23
X149.91Y-104.59
X151.0Y-92.0
X152.75Y-83.51
X154.12Y-99.15
X154.325Y-97.53
X154.58Y-86.45
X154.9Y-93.7
X155.0Y-92.21
X155.02Y-87.76
X155.07Y-90.76
X155.13Y-89.25
X156.15Y-82.81
X156.15Y-83.66
X158.75Y-96.82
X162.73Y-88.95
X162.88Y-82.92
X162.9Y-94.81
X163.64Y-99.2
X164.1Y-84.94
X164.46Y-91.52
X164.46Y-95.01
X164.5Y-88.58
X164.52Y-82.42
X165.2Y-107.6
X165.49Y-98.24
X165.6Y-81.75
X165.91Y-90.97
X165.95Y-89.63
X165.97Y-88.55
X166.21Y-105.96
X167.37Y-99.69
X167.42Y-90.48
X167.665Y-102.31
X167.665Y-104.61
T3
X158.45Y-100.567
X160.45Y-100.567
T2
X145.66Y-103.01G85X145.66Y-103.81
G05
X145.66Y-106.81G85X145.66Y-108.01
G05
X154.3Y-103.01G85X154.3Y-103.81
G05
X154.3Y-106.81G85X154.3Y-108.01
G05
M30
